<?xml version="1.0"?><svg xmlns="http://www.w3.org/2000/svg" id="Layer_1" viewBox="0 0 600 280"><defs></defs><rect class="cls-1" width="600" height="280"></rect><rect class="cls-3" x="490.75" y="65.7" width="8.04" height="83.27"></rect><path class="cls-3" d="M274.47,140.85c-12.5,0-22.66-10.17-22.66-22.67s10.16-22.66,22.66-22.66,22.67,10.17,22.67,22.66-10.17,22.67-22.67,22.67M274.74,87.48c-16.74,0-30.35,13.41-30.69,30.08l-.06-.06c0,17.21,0,15.09.01,56.3h8.04v-34.93c5.62,6.15,13.71,10.02,22.7,10.02,16.96,0,30.71-13.75,30.71-30.71s-13.76-30.7-30.71-30.7"></path><path class="cls-3" d="M335.95,140.79c-12.5,0-22.66-10.17-22.66-22.66s10.16-22.67,22.66-22.67,22.67,10.17,22.67,22.67-10.17,22.66-22.67,22.66M335.95,87.42c-16.96,0-30.71,13.75-30.71,30.71s13.75,30.7,30.71,30.7,30.7-13.75,30.7-30.7-13.74-30.71-30.7-30.71"></path><path class="cls-3" d="M458.64,140.98c-12.5,0-22.66-10.17-22.66-22.66s10.16-22.67,22.66-22.67,22.67,10.17,22.67,22.67-10.17,22.66-22.67,22.66M489.09,118.89l-.03.06c0-.22.02-.43.02-.64,0-16.96-13.75-30.7-30.7-30.7s-30.71,13.74-30.71,30.7,13.74,30.7,30.71,30.7c8.97,0,17.04-3.85,22.66-9.99v9.92h8.04s.02-12.85.01-30.05"></path><path class="cls-3" d="M397.16,87.54c-8.99,0-17.05,3.89-22.66,10.04v-31.89h-8.04s-.02,34.48-.01,51.97l.05-.06c0,.22-.04.42-.04.64,0,16.96,13.75,30.7,30.7,30.7s30.71-13.74,30.71-30.7-13.76-30.71-30.71-30.71M396.89,140.92c-12.5,0-22.67-10.17-22.67-22.67s10.17-22.67,22.67-22.67,22.67,10.17,22.67,22.67-10.16,22.67-22.67,22.67"></path><path class="cls-2" d="M170.19,135.19c0-4.17,3.37-7.53,7.53-7.53s7.54,3.37,7.54,7.53v37.43c3.18-1.5,6.19-3.3,9.03-5.33-.12-.54-.2-1.09-.2-1.67v-39.78c0-4.16,3.37-7.54,7.53-7.54s7.54,3.38,7.54,7.54v26.05c6.18-9.31,9.78-20.47,9.78-32.48,0-22.18-12.27-41.49-30.4-51.53.22.44.36.93.36,1.46,0,1.83-1.49,3.32-3.32,3.32s-3.31-1.48-3.31-3.32c0-1.64,1.19-2.99,2.74-3.26-7.57-3.55-16.01-5.54-24.94-5.54-32.51,0-58.86,26.36-58.86,58.86,0,14.15,5,27.14,13.32,37.29v-15.25c0-4.16,3.37-7.53,7.54-7.53s7.53,3.38,7.53,7.53v28.34c4.06,2.45,8.43,4.44,13.05,5.87v-27.21c0-4.16,3.37-7.53,7.53-7.53s7.53,3.37,7.53,7.53v29.77c.78.03,1.56.06,2.35.06,3.45,0,6.83-.31,10.11-.88v-42.21ZM177.72,123.45c-4.58,0-8.29-3.71-8.29-8.28s3.71-8.29,8.29-8.29,8.3,3.71,8.3,8.29-3.72,8.28-8.3,8.28M201.62,115.03c-3.66,0-6.62-2.98-6.62-6.63s2.96-6.63,6.62-6.63,6.65,2.96,6.65,6.63-2.97,6.63-6.65,6.63M202.23,85.93c2.75,0,4.98,2.23,4.98,4.98s-2.23,4.97-4.98,4.97-4.97-2.22-4.97-4.97,2.23-4.98,4.97-4.98M194.39,74.36c2.29,0,4.14,1.85,4.14,4.14s-1.85,4.15-4.14,4.15-4.15-1.85-4.15-4.15,1.86-4.14,4.15-4.14M187.52,90.74c3.2,0,5.81,2.6,5.81,5.8s-2.61,5.8-5.81,5.8-5.8-2.6-5.8-5.8,2.59-5.8,5.8-5.8M176.75,79.17c2.75,0,4.98,2.23,4.98,4.97s-2.23,4.98-4.98,4.98-4.97-2.22-4.97-4.98,2.23-4.97,4.97-4.97M121.5,126.76c-4.59,0-8.29-3.72-8.29-8.29s3.7-8.28,8.29-8.28,8.28,3.7,8.28,8.28-3.71,8.29-8.28,8.29M136.97,105.9c0-3.66,2.96-6.63,6.63-6.63s6.63,2.97,6.63,6.63-2.97,6.63-6.63,6.63-6.63-2.97-6.63-6.63M150.19,136.72c-5.5,0-9.95-4.46-9.95-9.95s4.45-9.95,9.95-9.95,9.95,4.45,9.95,9.95-4.46,9.95-9.95,9.95M164.65,106.41c-3.65,0-6.62-2.96-6.62-6.63s2.96-6.63,6.62-6.63,6.63,2.97,6.63,6.63-2.96,6.63-6.63,6.63"></path><path class="cls-2" d="M474.06,200.79h-2.38v12.44h2.56v-12.44h-.18ZM476.93,207.07c0,4.23,1.97,6.38,5.84,6.38,1.53,0,3-.26,4.25-.77l.14-.06-.39-2.14-.22.1c-1.01.46-2.21.71-3.38.71s-2.07-.3-2.67-.92c-.64-.66-.96-1.71-.96-3.13v-.12h7.89l.08-1.3c0-3.3-1.87-5.26-5.02-5.26-3.39,0-5.58,2.55-5.58,6.5M482.41,202.54c.74,0,1.36.24,1.79.69.46.47.7,1.16.71,1.98h-5.2c.3-1.62,1.28-2.67,2.69-2.67M489.49,204.38c0,2.5,1.89,3.07,3.4,3.53,1.37.42,2.21.72,2.21,1.74s-.96,1.66-2.44,1.66c-.91,0-1.88-.18-2.6-.47l-.23-.09-.24,2.37,2.88.34c3.16,0,5.29-1.63,5.29-4.05s-1.89-3-3.4-3.49c-1.2-.38-2.24-.71-2.24-1.77,0-1.27,1.19-1.54,2.18-1.54.82,0,1.64.13,2.3.36l.22.08.21-2.22-2.54-.26c-3.08,0-5,1.46-5,3.81"></path><path class="cls-2" d="M471.32,197.16c0,.89.73,1.59,1.64,1.59s1.65-.71,1.65-1.59-.74-1.62-1.65-1.62-1.64.73-1.64,1.62"></path><path class="cls-2" d="M444.71,203.04c.05-.67.17-2.26.17-2.26l-.2.02h-2.3v12.44h2.56v-5.97c0-2.58,1.39-4.53,3.24-4.53,1.35,0,1.88.71,1.88,2.54v7.96h2.56v-8.62c0-2.65-1.32-4.05-3.83-4.05-1.83,0-3.23.95-4.07,2.46M455.99,197.16c0,.89.72,1.59,1.64,1.59s1.65-.71,1.65-1.59-.74-1.62-1.65-1.62-1.64.73-1.64,1.62M458.72,200.79h-2.38v12.44h2.56v-12.44h-.18ZM465.48,196.28l-2.32.64v3.87h-2.48v2.07h2.48v6.77c0,2.78.93,3.81,3.42,3.81l2.66-.29-.04-.18-.24-1.99-1.69.22c-1.17,0-1.54-.32-1.54-2.35v-5.98h3.38v-2.07h-3.38v-4.58l-.24.06Z"></path><path class="cls-2" d="M361.14,207.42c0,4.98,2.98,6.02,5.48,6.02,1.26,0,2.63-.25,3.67-.67l.14-.06-.41-2.2-.22.1c-.79.37-1.73.57-2.74.57-2.21,0-3.24-1.29-3.24-4.05s1.23-4.33,3.19-4.33c.87,0,1.85.2,2.68.54l.2.09.49-2.24-.15-.06c-.88-.34-1.95-.52-3.03-.52-3.8,0-6.06,2.55-6.06,6.82M371.32,207.12c0,4.08,1.99,6.33,5.6,6.33s6.09-2.8,6.09-6.65c0-5.43-3.53-6.24-5.63-6.24-3.57,0-6.06,2.69-6.06,6.55M373.97,206.91c0-3.06,1.73-4.14,3.22-4.14,2.62,0,3.17,2.26,3.17,4.16,0,3.18-1.64,4.31-3.17,4.31-2.66,0-3.22-2.36-3.22-4.33M395.43,203.01c-.3-1.25-1.28-2.44-3.39-2.44-1.79,0-3.2.98-4.03,2.48.05-.66.18-2.28.18-2.28l-.2.02h-2.3v12.44h2.55v-5.92c0-2.57,1.41-4.58,3.2-4.58,1.28,0,1.79.72,1.79,2.56v7.94h2.53v-5.92c0-2.87,1.62-4.58,3.19-4.58,1.29,0,1.78.72,1.78,2.56v7.94h2.56v-8.52c0-2.75-1.27-4.15-3.78-4.15s-3.58,1.56-4.07,2.44M416.79,203.01c-.3-1.25-1.28-2.44-3.39-2.44-1.79,0-3.2.98-4.03,2.48.05-.66.18-2.28.18-2.28l-.2.02h-2.3v12.44h2.56v-5.92c0-2.57,1.4-4.58,3.19-4.58,1.28,0,1.79.72,1.79,2.56v7.94h2.53v-5.92c0-2.87,1.63-4.58,3.19-4.58,1.28,0,1.78.72,1.78,2.56v7.94h2.56v-8.52c0-2.75-1.27-4.15-3.78-4.15s-3.58,1.56-4.07,2.44M438.43,200.79h-2.35v5.96c0,2.58-1.4,4.53-3.26,4.53-1.33,0-1.88-.73-1.88-2.54v-7.96h-2.53v8.62c0,2.65,1.32,4.05,3.81,4.05,1.83,0,3.23-.95,4.08-2.46-.05.67-.18,2.26-.18,2.26l.2-.02h2.3v-12.44h-.18Z"></path><path class="cls-2" d="M105.5,205.28c0,1.46.62,2.58,1.7,3.32-.75.45-1.26,1.21-1.26,2.05,0,.78.44,1.42,1.11,1.81-1.16.73-1.93,1.94-1.93,3.2,0,2.38,1.97,3.8,5.26,3.8,3.75,0,6.58-2.05,6.58-4.77,0-2.28-1.51-3.59-4.23-3.69l-2.22-.07c-1.59-.08-1.89-.32-1.89-.76,0-.34.25-.65.67-.85.01.03,1.21.18,1.21.18,3.26,0,5.29-1.75,5.29-4.56,0-.82-.32-1.52-.79-2.05h1.81v-2.09h-4.29s-1.7-.22-1.7-.22c-3.65,0-5.32,2.44-5.32,4.7M107.67,215.26c0-.8.49-1.55,1.47-2.22.01.03.61.05.61.05l2.33.1c1.53.04,2.3.64,2.3,1.76,0,1.47-1.43,2.42-3.63,2.42-1.86,0-3.07-.83-3.07-2.1M108.03,205.08c0-1.53,1.05-2.51,2.68-2.51s2.54.92,2.54,2.51-.97,2.46-2.61,2.46-2.61-.88-2.61-2.46M118.16,207.12c0,4.08,1.99,6.33,5.6,6.33s6.09-2.8,6.09-6.65c0-5.43-3.53-6.24-5.63-6.24-3.57,0-6.06,2.69-6.06,6.55M120.81,206.91c0-3.06,1.73-4.14,3.22-4.14,2.62,0,3.17,2.26,3.17,4.16,0,3.18-1.63,4.31-3.17,4.31-2.66,0-3.22-2.36-3.22-4.33M142.01,200.79h-2.49l-2.67,7.39s-.33,1.07-.53,1.72c-.19-.61-.56-1.79-.56-1.79l-2.6-7.31h-2.85l4.68,12.44h2.52l4.76-12.44h-.27ZM142.63,207.07c0,4.23,1.97,6.38,5.85,6.38,1.53,0,3-.26,4.25-.77l.14-.06-.39-2.14-.22.1c-1.01.46-2.2.71-3.37.71s-2.07-.3-2.68-.92c-.64-.66-.96-1.71-.96-3.12v-.13h7.89l.09-1.3c0-3.3-1.88-5.26-5.02-5.26-3.39,0-5.58,2.55-5.58,6.5M148.11,202.54c.74,0,1.36.24,1.79.69.46.47.7,1.16.71,1.98h-5.2c.3-1.62,1.28-2.67,2.69-2.67M158.36,202.8c.08-.85.19-2.02.19-2.02l-.2.02h-2.3v12.44h2.56v-5.04c0-2.34.45-3.9,1.34-4.64.55-.46,1.3-.61,2.21-.45l.21.04.11-2.55-.17-.02c-2.22-.22-3.36,1.1-3.94,2.22M166.99,203.04c.05-.67.17-2.26.17-2.26l-.2.02h-2.3v12.44h2.56v-5.97c0-2.58,1.39-4.53,3.24-4.53,1.35,0,1.88.71,1.88,2.54v7.96h2.56v-8.62c0-2.65-1.33-4.05-3.83-4.05-1.83,0-3.23.95-4.08,2.46M188.39,203.01c-.3-1.25-1.27-2.44-3.39-2.44-1.79,0-3.2.98-4.03,2.48.05-.66.18-2.28.18-2.28l-.2.02h-2.3v12.44h2.56v-5.92c0-2.57,1.4-4.58,3.19-4.58,1.28,0,1.78.72,1.78,2.56v7.94h2.54v-5.92c0-2.87,1.62-4.58,3.19-4.58,1.28,0,1.78.72,1.78,2.56v7.94h2.56v-8.52c0-2.75-1.27-4.15-3.78-4.15s-3.58,1.56-4.07,2.44M198.93,207.07c0,4.23,1.97,6.38,5.84,6.38,1.53,0,3-.26,4.25-.77l.14-.06-.38-2.14-.22.1c-1.01.46-2.2.71-3.37.71s-2.08-.3-2.68-.92c-.64-.66-.96-1.71-.96-3.13v-.12h7.89l.08-1.3c0-3.3-1.87-5.26-5.02-5.26-3.39,0-5.58,2.55-5.58,6.5M204.42,202.54c.74,0,1.36.24,1.79.69.46.47.7,1.16.71,1.98h-5.2c.3-1.62,1.28-2.67,2.69-2.67M214.67,203.04c.05-.67.17-2.26.17-2.26l-.2.02h-2.3v12.44h2.56v-5.97c0-2.58,1.39-4.53,3.24-4.53,1.35,0,1.88.71,1.88,2.54v7.96h2.56v-8.62c0-2.65-1.32-4.05-3.83-4.05-1.83,0-3.23.95-4.08,2.46M228.88,196.28l-2.32.64v3.87h-2.48v2.07h2.48v6.77c0,2.78.93,3.81,3.42,3.81l2.66-.29-.04-.18-.24-1.99-1.69.22c-1.18,0-1.54-.32-1.54-2.35v-5.98h3.38v-2.07h-3.38v-4.58l-.24.06ZM239.9,204.38c0,2.5,1.89,3.07,3.4,3.53,1.37.42,2.21.72,2.21,1.74s-.96,1.66-2.44,1.66c-.91,0-1.88-.18-2.6-.47l-.23-.09-.24,2.37,2.88.34c3.16,0,5.29-1.63,5.29-4.05s-1.89-3-3.4-3.49c-1.2-.38-2.24-.71-2.24-1.77,0-1.27,1.18-1.54,2.18-1.54.82,0,1.63.13,2.3.36l.22.08.21-2.22-2.54-.26c-3.08,0-5,1.46-5,3.81M261.1,200.79h-2.35v5.96c0,2.58-1.41,4.53-3.26,4.53-1.34,0-1.88-.73-1.88-2.54v-7.96h-2.53v8.62c0,2.65,1.31,4.05,3.81,4.05,1.83,0,3.23-.95,4.08-2.46-.05.67-.17,2.26-.17,2.26l.2-.02h2.3v-12.44h-.18ZM267.37,202.96c.05-.65.18-2.18.18-2.18l-.2.02h-2.3v18.45h2.56v-5.99c.35.03,1.86.14,1.86.14,4.01,0,6.41-2.6,6.41-6.94,0-3.79-1.64-5.87-4.61-5.87-1.76,0-3.09.92-3.89,2.38M267.61,207.22c0-1.86.97-4.48,3.12-4.48,1.65,0,2.49,1.31,2.49,3.9,0,3.1-1.23,4.67-3.65,4.67,0,0-1.72-.23-1.95-.26v-3.83ZM280.94,202.95c.05-.65.17-2.18.17-2.18l-.2.02h-2.3v18.45h2.56v-5.99c.35.03,1.85.14,1.85.14,4.01,0,6.41-2.6,6.41-6.94,0-3.79-1.64-5.87-4.61-5.87-1.75,0-3.08.92-3.88,2.38M281.17,207.22c0-1.86.97-4.48,3.12-4.48,1.65,0,2.49,1.31,2.49,3.9,0,3.1-1.23,4.67-3.65,4.67,0,0-1.72-.23-1.95-.26v-3.83ZM291.05,207.12c0,4.08,1.99,6.33,5.6,6.33s6.09-2.8,6.09-6.65c0-5.43-3.53-6.24-5.63-6.24-3.57,0-6.06,2.69-6.06,6.55M293.71,206.91c0-3.06,1.73-4.14,3.22-4.14,2.62,0,3.17,2.26,3.17,4.16,0,3.18-1.64,4.31-3.17,4.31-2.66,0-3.22-2.36-3.22-4.33M307.72,202.88c.08-.86.2-2.11.2-2.11l-.21.02h-2.3v12.44h2.56v-5.04c0-2.34.45-3.9,1.34-4.64.55-.46,1.29-.61,2.21-.45l.21.04.12-2.55-.18-.02c-1.77-.18-3.14.68-3.95,2.31M317.27,196.28l-2.32.64v3.87h-2.48v2.07h2.48v6.77c0,2.78.93,3.81,3.42,3.81l2.66-.29-.04-.18-.24-1.99-1.69.22c-1.17,0-1.54-.32-1.54-2.35v-5.98h3.38v-2.07h-3.38v-4.58l-.23.06ZM323.11,197.16c0,.89.72,1.59,1.64,1.59s1.64-.71,1.64-1.59-.74-1.62-1.64-1.62-1.64.73-1.64,1.62M325.84,200.79h-2.37v12.44h2.56v-12.44h-.19ZM332.11,203.04c.05-.66.17-2.26.17-2.26l-.2.02h-2.3v12.44h2.56v-5.97c0-2.58,1.39-4.53,3.24-4.53,1.35,0,1.88.71,1.88,2.54v7.96h2.56v-8.62c0-2.65-1.33-4.05-3.83-4.05-1.83,0-3.23.95-4.08,2.46M343.06,205.28c0,1.46.62,2.58,1.7,3.32-.76.45-1.27,1.21-1.27,2.05,0,.78.44,1.42,1.11,1.81-1.16.73-1.93,1.94-1.93,3.2,0,2.38,1.97,3.8,5.26,3.8,3.75,0,6.57-2.05,6.57-4.77,0-2.28-1.5-3.59-4.23-3.69l-2.22-.07c-1.59-.08-1.89-.32-1.89-.76,0-.34.25-.65.67-.85.01.02,1.21.18,1.21.18,3.26,0,5.29-1.75,5.29-4.56,0-.82-.32-1.52-.79-2.05h1.81v-2.09h-4.29s-1.7-.22-1.7-.22c-3.65,0-5.31,2.44-5.31,4.7M345.22,215.26c0-.8.5-1.54,1.47-2.22.01.03.61.05.61.05l2.33.1c1.53.04,2.3.64,2.3,1.76,0,1.47-1.43,2.42-3.63,2.42-1.87,0-3.08-.83-3.08-2.1M345.59,205.08c0-1.53,1.05-2.51,2.68-2.51s2.54.92,2.54,2.51-.98,2.46-2.61,2.46-2.61-.88-2.61-2.46"></path></svg>